<svg width="256" height="256" viewBox="0 0 256 256" fill="none" xmlns="http://www.w3.org/2000/svg">
<path d="M125 157C150 139.5 158.5 127.5 160.5 106.5M160.5 93C188 108.5 181.5 158 208 168M142 160.5C141.5 163 157 159.346 157 159.346M179.5 197.5L184.5 205C189.244 190.575 190.055 180.261 187.5 157C175.907 156.26 169.273 156.534 157 159.346M157 159.346C153.242 180.049 149.4 188.265 137 196.5" stroke="white" stroke-width="5" stroke-linecap="round" stroke-linejoin="round"/>
<path d="M20.8126 69.7493C19.5976 70.405 19.1442 71.9216 19.8 73.1367C20.4558 74.3517 21.9724 74.8051 23.1874 74.1493L20.8126 69.7493ZM55.2417 37.9216C55.7507 36.6382 55.1228 35.1851 53.8394 34.6761C52.5559 34.1671 51.1028 34.7949 50.5938 36.0784L55.2417 37.9216ZM47.5903 48.5399L45.4034 47.3285L47.5903 48.5399ZM111.982 44.7697C113.359 44.8625 114.551 43.821 114.644 42.4434C114.737 41.0658 113.695 39.8738 112.318 39.781L111.982 44.7697ZM64.7583 52.3124C63.3821 52.4235 62.3564 53.6292 62.4675 55.0054C62.5785 56.3817 63.7842 57.4073 65.1605 57.2962L64.7583 52.3124ZM101.936 54.3289C103.313 54.2178 104.338 53.0121 104.227 51.6359C104.116 50.2596 102.91 49.234 101.534 49.3451L101.936 54.3289ZM28.4197 73.4404C27.0581 73.6695 26.14 74.9589 26.3691 76.3205C26.5981 77.6821 27.8876 78.6002 29.2492 78.3712L28.4197 73.4404ZM112.15 70.3007L114.566 70.9425C114.755 70.2313 114.621 69.4731 114.2 68.8697C113.778 68.2663 113.113 67.8792 112.38 67.8114L112.15 70.3007ZM108.244 115.955L106.946 118.092C107.209 118.252 107.5 118.362 107.804 118.416L108.244 115.955ZM129.895 108.201L129.395 105.752L124.496 106.753L124.996 109.202L129.895 108.201ZM41.8759 123.381C40.5994 123.907 39.9913 125.368 40.5175 126.645C41.0438 127.921 42.5052 128.53 43.7817 128.003L41.8759 123.381ZM88.5604 78.3973C88.8438 77.046 87.9781 75.7207 86.6268 75.4373C85.2755 75.1539 83.9503 76.0195 83.6669 77.3709L88.5604 78.3973ZM62.1146 77.066C61.6628 75.7613 60.2388 75.0699 58.9341 75.5217C57.6294 75.9735 56.938 77.3974 57.3898 78.7021L62.1146 77.066ZM67.3757 127.586C67.1468 128.947 68.0651 130.237 69.4267 130.465C70.7883 130.694 72.0777 129.776 72.3065 128.414L67.3757 127.586ZM23.1874 74.1493C36.1318 67.1629 43.6045 60.8953 49.7773 49.7512L45.4034 47.3285C39.8394 57.3736 33.225 63.05 20.8126 69.7493L23.1874 74.1493ZM49.7773 49.7512C51.6902 46.2977 53.4638 42.4045 55.2417 37.9216L50.5938 36.0784C48.8675 40.4313 47.1821 44.1173 45.4034 47.3285L49.7773 49.7512ZM47.9313 51.0165C87.5074 45.5673 102.046 44.1005 111.982 44.7697L112.318 39.781C101.751 39.0693 86.6166 40.6428 47.2493 46.0632L47.9313 51.0165ZM65.1605 57.2962L101.936 54.3289L101.534 49.3451L64.7583 52.3124L65.1605 57.2962ZM29.2492 78.3712C61.4637 72.9521 79.2368 69.766 111.919 72.7901L112.38 67.8114C78.9975 64.7225 60.6669 68.0159 28.4197 73.4404L29.2492 78.3712ZM109.733 69.6589C105.96 83.8639 103.716 94.7079 103.052 102.432C102.72 106.284 102.766 109.514 103.287 112.058C103.801 114.574 104.871 116.831 106.946 118.092L109.543 113.819C109.177 113.596 108.573 112.948 108.185 111.056C107.804 109.191 107.719 106.508 108.033 102.861C108.659 95.5871 110.809 85.0874 114.566 70.9425L109.733 69.6589ZM107.804 118.416C112.479 119.253 116.237 119.834 119.196 120.068C122.077 120.296 124.558 120.232 126.468 119.502C127.483 119.115 128.391 118.52 129.094 117.651C129.792 116.786 130.172 115.793 130.354 114.782C130.698 112.877 130.385 110.6 129.895 108.201L124.996 109.202C125.483 111.584 125.591 113.022 125.434 113.895C125.365 114.274 125.264 114.435 125.205 114.508C125.15 114.576 125.025 114.701 124.684 114.831C123.883 115.137 122.363 115.303 119.59 115.084C116.893 114.87 113.342 114.328 108.685 113.494L107.804 118.416ZM43.7817 128.003C56.4294 122.789 66.1395 118.003 73.4215 110.622C80.771 103.173 85.4311 93.3165 88.5604 78.3973L83.6669 77.3709C80.6524 91.7429 76.3028 100.582 69.8623 107.11C63.3542 113.707 54.4938 118.179 41.8759 123.381L43.7817 128.003ZM57.3898 78.7021C63.9178 97.5537 71.2652 104.447 67.3757 127.586L72.3065 128.414C76.4754 103.613 68.2304 94.7275 62.1146 77.066L57.3898 78.7021Z" fill="white"/>
</svg>
